<?xml version="1.0" standalone="no"?>
<!DOCTYPE svg PUBLIC "-//W3C//DTD SVG 20010904//EN"
 "http://www.w3.org/TR/2001/REC-SVG-20010904/DTD/svg10.dtd">
<svg version="1.0" xmlns="http://www.w3.org/2000/svg"
 width="700.000000pt" height="700.000000pt" viewBox="0 0 700.000000 700.000000"
 preserveAspectRatio="xMidYMid meet">
<metadata>
Created by potrace 1.14, written by Peter Selinger 2001-2017
</metadata>
<g transform="translate(0.000000,700.000000) scale(0.100000,-0.100000)"
fill="#000000" stroke="none">
<path d="M4728 6132 c-473 -474 -789 -784 -795 -779 -5 4 -117 116 -251 249
l-242 243 -158 -158 -157 -157 82 -82 82 -82 -566 -565 c-312 -311 -585 -588
-607 -616 -153 -187 -190 -481 -87 -701 50 -106 86 -150 318 -383 l223 -224
-817 -813 -818 -813 158 -158 158 -158 813 818 813 817 219 -218 c248 -247
270 -265 374 -315 224 -109 516 -80 706 71 27 21 306 296 620 610 l571 571 81
-82 82 -81 112 109 c62 61 133 132 157 158 l45 48 -242 242 c-133 133 -245
245 -249 250 -5 6 450 470 799 815 32 31 58 60 58 63 0 8 -299 304 -306 302
-3 0 -199 -193 -435 -427 -236 -234 -433 -426 -437 -426 -4 0 -182 174 -394
386 l-386 386 430 433 c236 238 430 437 430 441 1 8 -293 304 -302 304 -3 0
-40 -35 -82 -78z m-395 -1810 l727 -727 -577 -577 c-563 -561 -579 -577 -633
-592 -67 -19 -153 -15 -200 8 -47 24 -1185 1160 -1213 1211 -30 55 -31 183 -2
235 22 38 1144 1170 1160 1170 6 0 337 -327 738 -728z"/>
</g>
</svg>
